<?xml version="1.0" encoding="utf-8"?>
<!-- Generator: Adobe Illustrator 24.0.2, SVG Export Plug-In . SVG Version: 6.00 Build 0)  -->
<svg version="1.1" id="Layer_1" xmlns="http://www.w3.org/2000/svg" xmlns:xlink="http://www.w3.org/1999/xlink" x="0px" y="0px"
	 viewBox="0 0 404 140" style="enable-background:new 0 0 404 140;" xml:space="preserve">
<style type="text/css">
	.st0{fill:url(#SVGID_1_);}
	.st1{fill:url(#SVGID_2_);}
	.st2{fill:url(#SVGID_3_);}
</style>
<g>
	<g>
		
			<linearGradient id="SVGID_1_" gradientUnits="userSpaceOnUse" x1="62.359" y1="144.4901" x2="51.5144" y2="205.9934" gradientTransform="matrix(1 0 0 -1 0 232)">
			<stop  offset="0" style="stop-color:#00AEEF"/>
			<stop  offset="0.6746" style="stop-color:#ABD592"/>
		</linearGradient>
		<polygon class="st0" points="69.7,22.8 22.7,69.8 43.7,90.8 49.6,84.9 34.5,69.8 70.1,34.2 85.1,49.3 91.1,43.3 		"/>
		
			<linearGradient id="SVGID_2_" gradientUnits="userSpaceOnUse" x1="89.1856" y1="118.0066" x2="78.3409" y2="179.5099" gradientTransform="matrix(1 0 0 -1 0 232)">
			<stop  offset="0" style="stop-color:#00AEEF"/>
			<stop  offset="0.6746" style="stop-color:#ABD592"/>
		</linearGradient>
		<polygon class="st1" points="71,117.2 118,70.2 97,49.2 91.1,55.1 106.2,70.2 70.7,105.7 55.6,90.7 49.6,96.7 		"/>
		
			<linearGradient id="SVGID_3_" gradientUnits="userSpaceOnUse" x1="74.3583" y1="139.3508" x2="66.1669" y2="185.8065" gradientTransform="matrix(1 0 0 -1 0 232)">
			<stop  offset="0" style="stop-color:#00AEEF"/>
			<stop  offset="0.6746" style="stop-color:#ABD592"/>
		</linearGradient>
		<polygon class="st2" points="70.1,45.5 46.2,69.5 70.1,93.4 94.3,69.2 		"/>
	</g>
	<g>
		<path d="M173.7,82.3c-0.4,1.9-2.4,9.9-3,12h-36.5v-2.4c6.6-0.6,7.1-1.1,7.1-7.1V57c0-6.2-0.8-6.6-5.9-7.1v-2.4h22.9
			c7.3,0,9.9-0.1,10.9-0.1c0.1,1.5,0.4,7.2,0.7,11.4l-2.6,0.4c-0.6-2.4-1.7-4.9-2.8-6.3c-1.2-1.8-2.4-2.2-6.3-2.2h-5.4
			c-2.6,0-2.8,0.2-2.8,2.5v15.4h7.4c4.5,0,5.1-1.1,6.1-6.1h2.6V78h-2.6c-1.1-5.3-1.7-6.1-6.2-6.1H150V85c0,5,0.6,6.1,4.8,6.2h5.7
			c4.2,0,5.1-0.6,6.7-2.5c1.6-1.9,3.1-4.7,4.2-7L173.7,82.3z"/>
		<path d="M191.7,94.3c-1.2,0.6-2.4,0.8-3,0.8c-5.2,0-8.2-2.7-8.2-8.9V65.8h-4.7l-0.4-0.9l2-2.5h3.1v-6c2.1-1.6,5.1-3.8,7.2-5.4
			l1,0.4c-0.1,2.3-0.2,6.3-0.2,11h7.6c0.6,0.7,0.4,2.7-0.5,3.4h-7v17.9c0,5.7,2.3,6.5,3.8,6.5c1.4,0,2.6-0.4,3.8-0.9l0.7,2.3
			L191.7,94.3z"/>
		<path d="M219.7,94.3V92c3.5-0.5,3.9-0.9,3.9-5.1V74.5c0-5.7-2.3-8-5.8-7.9c-2.1,0-4.3,0.8-6.1,2.7v17.6c0,4.2,0.4,4.6,4.1,5.1v2.3
			h-16.6V92c3.8-0.4,4.5-0.7,4.5-5.3V52.9c0-3.5-0.4-4.3-4.7-4.9v-2.2c4.8-0.4,9.5-1.4,12.7-2.4c0,2.7,0,5.7,0,8.5v14.6
			c2.5-2.5,6.2-4.9,10-4.9c6.1,0,10,4,10,12.1v13c0,4.6,0.5,4.8,4.2,5.3v2.3H219.7z"/>
		<path d="M267.7,87.6c-4.5,6.2-10,7.6-12.7,7.6c-9.3,0-14.8-7.2-14.8-15.6c0-5,2.1-9.8,5.1-12.8c3.2-3.3,7.2-5.1,11.1-5.1
			c6.8,0,11.6,5.7,11.6,11.5c0,1.3-0.1,2.3-1.1,2.6c-1.4,0.3-11.2,0.9-18.8,1.2c0.1,8.3,4.9,12.3,10.1,12.3c2.9,0,5.6-1.1,8.3-3.4
			L267.7,87.6z M254.9,64.5c-3,0-5.8,3.3-6.4,9c3.3,0,6.5-0.1,10-0.2c1.1,0,1.5-0.3,1.5-1.4C260.1,68.2,258.1,64.5,254.9,64.5z"/>
		<path d="M290.4,94.3h-18.2V92c4.1-0.4,4.5-0.8,4.5-5.2V71.3c0-4-0.3-4.3-3.9-5v-2.1c4.1-0.5,7.9-1.4,12-2.8c0,2.4,0,5.5,0,7.8
			c3-4.5,5.7-7.7,8.9-7.7c2.7,0,4.5,1.8,4.5,4c0,2.9-2,4.7-3.2,5.4c-0.9,0.4-1.6,0.2-2.1-0.3c-1.2-1-2.1-2-3.3-2
			c-1.2,0-3.3,1.4-4.7,4.5v13.6c0,4.5,0.5,4.7,5.7,5.3v2.3H290.4z"/>
		<path d="M301.7,94.3V92c4.1-0.5,4.6-0.8,4.6-5.8V71.9c0-4.7-0.3-5-4-5.5v-2.1c4.3-0.6,8.4-1.5,12-2.7c0,3,0,6,0,9v15.7
			c0,4.9,0.4,5.4,4.7,5.8v2.3h-17.3L301.7,94.3L301.7,94.3z M309.8,56.2c-2.5,0-4.7-2.1-4.7-4.7c0-2.7,2.2-4.7,4.8-4.7
			c2.6,0,4.7,2,4.7,4.7C314.5,54,312.4,56.2,309.8,56.2z"/>
		<path d="M346.3,95.2c-1.6,0-3.2-0.6-4.1-1.5c-1-0.9-1.5-1.9-1.8-2.9c-2.8,1.9-6.3,4.3-8,4.3c-5.8,0-9.4-4.6-9.4-9.1
			c0-3.7,1.8-5.6,5.7-7.1c4.3-1.6,9.9-3.3,11.5-4.7v-2.6c0-4.2-1.8-6.6-5.1-6.6c-1.4,0-2.4,0.7-3.1,1.5c-0.8,1.1-1.2,2.6-1.8,4.7
			c-0.5,1.7-1.4,2.2-2.7,2.2c-1.7,0-3.9-1.6-3.9-3.5c0-1.2,0.9-2.1,2.5-3.2c2.8-1.9,7.1-4.2,11.1-5.1c2.6,0,5,0.6,6.9,2
			c2.9,2.2,3.9,5,3.9,8.7v13c0,3.4,1.2,4.3,2.4,4.3c0.8,0,1.6-0.3,2.4-0.7l0.8,2.3L346.3,95.2z M340.2,77c-1.4,0.7-3.4,1.7-5,2.5
			c-2.4,1.2-3.8,2.5-3.8,5c0,4,2.8,5.5,4.7,5.5c1.3,0,2.9-0.5,4.1-1.7C340.2,85,340.2,80.4,340.2,77z"/>
		<path d="M355.3,94.3V92c4.3-0.6,4.6-0.9,4.6-5.5V53.1c0-4-0.4-4.4-4.5-5.1v-2.2c4.6-0.5,9.4-1.4,12.5-2.4c0,3.3,0,6.6,0,9.9v33.1
			c0,4.8,0.3,5.1,4.6,5.5v2.3h-17.2V94.3z"/>
	</g>
</g>
</svg>
